<svg xmlns="http://www.w3.org/2000/svg" xmlns:xlink="http://www.w3.org/1999/xlink" preserveAspectRatio="xMidYMid" width="139" height="52" viewBox="0 0 139 52">
  <defs>
    <style>
      .cls-1 {
        fill: #ea4335;
      }

      .cls-1, .cls-2, .cls-3, .cls-4, .cls-5, .cls-6, .cls-7, .cls-8 {
        fill-rule: evenodd;
      }

      .cls-2 {
        fill: #fbbc05;
      }

      .cls-3 {
        fill: #96cd39;
      }

      .cls-4 {
        fill: #4285f4;
      }

      .cls-5 {
        fill: #ac40ff;
      }

      .cls-6 {
        fill: #f09;
      }

      .cls-7 {
        fill: gray;
      }

      .cls-8 {
        fill: #fff;
      }
    </style>
  </defs>
  <path d="M-0.169,22.215 C-0.169,22.677 -0.072,23.138 0.123,23.600 C0.512,24.582 1.115,25.460 1.931,26.234 C2.747,27.008 3.679,27.618 4.728,28.064 C5.775,28.510 6.914,28.838 8.142,29.046 C8.890,29.165 9.654,29.232 10.433,29.247 C10.897,29.247 11.368,29.224 11.848,29.179 C13.090,29.044 14.273,28.786 15.396,28.402 C16.520,28.019 17.553,27.449 18.496,26.690 C19.439,25.932 20.188,25.042 20.742,24.020 C21.206,23.149 21.498,22.143 21.618,21.001 C21.648,20.671 21.670,20.333 21.686,19.988 C21.686,19.192 21.581,18.396 21.374,17.599 C21.076,16.473 20.579,15.564 19.880,14.873 C19.330,14.318 18.572,13.800 17.606,13.319 C16.641,12.838 15.686,12.432 14.743,12.099 C13.800,11.766 12.891,11.426 12.015,11.078 C11.139,10.730 10.447,10.336 9.938,9.898 C9.459,9.504 9.220,9.066 9.220,8.581 C9.234,8.536 9.242,8.491 9.242,8.445 C9.317,7.462 9.724,6.857 10.462,6.630 C10.673,6.570 10.899,6.539 11.140,6.539 C11.887,6.539 12.738,6.864 13.693,7.515 C15.051,8.438 16.014,9.610 16.581,11.032 C17.918,10.458 18.929,9.747 19.613,8.901 C20.266,8.084 20.593,7.253 20.593,6.406 C20.593,5.552 20.333,4.690 19.811,3.821 C19.319,2.995 18.626,2.266 17.732,1.632 C16.749,0.940 15.631,0.424 14.379,0.085 C13.217,-0.224 12.062,-0.379 10.914,-0.379 C10.825,-0.379 10.743,-0.379 10.669,-0.379 C9.447,-0.349 8.241,-0.149 7.050,0.222 C5.843,0.607 4.775,1.134 3.844,1.801 C2.913,2.468 2.142,3.313 1.532,4.336 C0.921,5.359 0.571,6.486 0.482,7.717 C0.452,8.058 0.438,8.391 0.438,8.717 C0.438,9.913 0.608,10.949 0.950,11.826 C1.500,13.248 2.622,14.421 4.316,15.343 C4.984,15.692 6.485,16.334 8.819,17.272 C8.937,17.333 9.298,17.458 9.900,17.647 C10.502,17.836 11.014,18.017 11.435,18.191 C11.857,18.365 12.233,18.649 12.565,19.042 C12.805,19.345 12.918,19.663 12.903,19.995 C12.903,20.131 12.881,20.275 12.836,20.427 C12.625,21.364 12.022,21.886 11.029,21.992 C10.909,21.992 10.781,21.992 10.646,21.992 C9.757,22.007 8.772,21.690 7.688,21.039 C6.454,20.283 5.400,19.239 4.527,17.908 C4.422,17.893 4.309,17.885 4.188,17.885 C3.571,17.900 2.977,18.044 2.405,18.316 C1.713,18.649 1.156,19.087 0.734,19.631 C0.328,20.175 0.049,20.795 -0.101,21.490 C-0.146,21.732 -0.169,21.974 -0.169,22.215 L-0.169,22.215 Z" class="cls-1"/>
  <path d="M24.044,13.702 L24.089,24.447 C24.089,25.090 24.107,25.602 24.145,25.983 C24.183,26.364 24.276,26.776 24.426,27.217 C24.577,27.658 24.798,27.991 25.091,28.215 C25.384,28.440 25.800,28.626 26.341,28.776 C26.836,28.925 27.437,29.000 28.143,29.000 C28.202,29.000 28.270,29.000 28.345,29.000 C29.036,29.000 29.633,28.922 30.136,28.765 C30.639,28.608 31.037,28.410 31.329,28.170 C31.622,27.931 31.855,27.606 32.027,27.194 C32.200,26.783 32.320,26.379 32.388,25.983 C32.455,25.587 32.504,25.105 32.534,24.536 C32.549,23.370 32.557,22.293 32.557,21.306 C32.557,18.331 32.489,16.087 32.354,14.577 C32.339,14.472 32.332,14.375 32.332,14.286 C32.347,13.613 32.592,13.089 33.068,12.715 C33.395,12.476 33.714,12.356 34.027,12.356 C34.249,12.356 34.480,12.416 34.717,12.536 C35.283,12.835 35.574,13.456 35.589,14.398 L35.274,23.863 C35.274,24.028 35.274,24.185 35.274,24.334 C35.259,24.888 35.297,25.389 35.388,25.837 C35.509,26.406 35.729,26.944 36.047,27.452 C36.366,27.961 36.858,28.350 37.525,28.619 C38.131,28.873 38.896,29.000 39.821,29.000 C39.881,29.000 39.934,29.000 39.980,29.000 C40.142,29.000 40.297,28.993 40.444,28.978 C41.888,28.903 42.787,28.372 43.140,27.385 C43.302,26.922 43.398,25.972 43.428,24.536 C43.428,24.267 43.428,23.991 43.428,23.706 C43.428,22.286 43.379,20.761 43.282,19.131 C43.184,17.620 43.136,16.364 43.136,15.362 C43.136,15.063 43.143,14.787 43.158,14.532 C43.216,13.650 43.517,13.045 44.061,12.715 C44.324,12.566 44.581,12.484 44.831,12.469 C45.095,12.484 45.367,12.581 45.646,12.760 C46.174,13.119 46.430,13.650 46.416,14.353 L46.325,16.798 C46.265,18.413 46.205,20.132 46.146,21.957 C46.101,23.392 46.080,24.379 46.080,24.918 C46.080,25.037 46.080,25.142 46.080,25.232 C46.094,26.010 46.244,26.675 46.529,27.228 C47.130,28.424 48.218,29.022 49.794,29.022 C49.853,29.022 49.913,29.022 49.973,29.022 C51.438,28.993 52.799,28.514 54.055,27.587 C55.310,26.660 55.938,25.621 55.938,24.469 C55.938,24.439 55.938,24.402 55.938,24.357 C55.497,24.237 55.185,23.916 55.001,23.392 C54.817,22.869 54.718,21.949 54.703,20.633 C54.703,20.244 54.703,19.848 54.703,19.444 C54.703,17.635 54.755,15.751 54.860,13.792 C54.860,12.741 54.741,11.773 54.502,10.887 C54.263,10.002 53.938,9.255 53.528,8.647 C53.118,8.039 52.644,7.506 52.107,7.048 C51.569,6.590 50.991,6.256 50.372,6.046 C49.753,5.836 49.130,5.701 48.503,5.641 C48.324,5.611 48.130,5.596 47.921,5.596 C47.489,5.611 47.056,5.671 46.623,5.776 C45.996,5.926 45.422,6.144 44.900,6.430 C44.377,6.715 43.911,7.095 43.501,7.568 C43.090,8.041 42.781,8.578 42.572,9.179 C42.302,8.322 41.757,7.601 40.938,7.015 C40.119,6.429 39.183,6.061 38.132,5.911 C37.651,5.835 37.170,5.798 36.689,5.798 C36.133,5.813 35.577,5.866 35.021,5.956 C33.984,6.136 33.053,6.557 32.226,7.218 C31.415,7.909 30.889,8.781 30.648,9.832 C30.648,9.682 30.648,9.539 30.648,9.404 C30.648,8.187 30.408,7.323 29.927,6.812 C29.386,6.241 28.492,5.955 27.245,5.955 C25.982,5.955 24.781,6.264 23.640,6.880 C23.909,8.546 24.044,10.820 24.044,13.702 L24.044,13.702 Z" class="cls-2"/>
  <path d="M58.623,24.901 C59.319,26.451 60.206,27.562 61.284,28.236 C62.362,28.910 63.500,29.284 64.698,29.359 C64.788,29.359 64.885,29.359 64.990,29.359 C66.067,29.359 67.106,29.000 68.109,28.281 C69.215,27.503 70.083,26.380 70.711,24.912 C70.815,25.871 71.049,26.668 71.413,27.304 C71.777,27.941 72.211,28.375 72.716,28.607 C73.221,28.839 73.770,28.955 74.365,28.955 C74.379,28.955 74.394,28.963 74.409,28.978 C74.988,28.978 75.560,28.828 76.125,28.528 C76.704,28.229 77.231,27.866 77.707,27.439 C78.184,27.012 78.579,26.484 78.894,25.855 C79.208,25.227 79.380,24.575 79.410,23.901 C78.976,23.842 78.643,23.681 78.411,23.418 C78.178,23.157 78.062,22.644 78.062,21.880 C78.062,21.191 78.066,19.821 78.074,17.770 C78.081,15.718 78.085,13.746 78.085,11.851 C78.085,9.957 78.077,8.254 78.062,6.741 C77.231,6.352 76.414,6.112 75.612,6.022 C75.404,6.008 75.181,6.000 74.944,6.000 C74.394,5.985 73.874,6.060 73.384,6.225 C72.701,6.449 72.140,6.910 71.702,7.606 C71.264,8.302 71.015,9.212 70.956,10.335 C70.791,9.646 70.560,9.032 70.261,8.493 C69.962,7.954 69.629,7.527 69.263,7.213 C68.896,6.898 68.534,6.633 68.175,6.416 C67.816,6.199 67.435,6.045 67.031,5.955 C66.628,5.865 66.302,5.806 66.056,5.775 C65.809,5.746 65.559,5.730 65.305,5.730 C65.275,5.730 65.237,5.730 65.192,5.730 C64.429,5.716 63.695,5.850 62.991,6.135 C62.242,6.434 61.524,6.929 60.835,7.617 C60.131,8.306 59.528,9.167 59.027,10.200 C58.525,11.233 58.140,12.544 57.870,14.131 C57.660,15.374 57.556,16.744 57.556,18.241 C57.556,18.646 57.563,19.058 57.578,19.477 C57.578,21.543 57.926,23.351 58.623,24.901 ZM66.473,17.837 C66.473,17.178 66.495,16.497 66.540,15.793 C66.600,14.730 66.779,13.884 67.079,13.255 C67.349,12.686 67.723,12.401 68.202,12.401 C68.247,12.401 68.292,12.401 68.337,12.401 C68.846,12.461 69.235,12.750 69.505,13.266 C69.774,13.783 69.909,14.318 69.909,14.872 L69.909,20.712 C69.789,21.506 69.565,22.127 69.235,22.576 C68.891,23.011 68.524,23.228 68.135,23.228 C67.970,23.228 67.805,23.190 67.641,23.115 C67.086,22.876 66.765,22.382 66.675,21.633 C66.585,20.705 66.525,19.761 66.495,18.803 C66.480,18.488 66.473,18.166 66.473,17.837 L66.473,17.837 Z" class="cls-3"/>
  <path d="M81.432,13.277 C81.432,13.951 81.394,15.108 81.319,16.748 C81.244,18.387 81.207,19.664 81.207,20.577 C81.207,21.596 81.241,22.505 81.308,23.306 C81.375,24.107 81.503,24.905 81.690,25.698 C81.877,26.492 82.128,27.151 82.442,27.675 C82.757,28.199 83.184,28.626 83.723,28.955 C84.262,29.284 84.891,29.449 85.609,29.449 C87.241,29.449 88.465,29.064 89.282,28.292 C90.098,27.521 90.506,26.559 90.506,25.406 C90.506,24.478 90.420,23.074 90.248,21.195 C90.075,19.316 89.989,17.837 89.989,16.759 C89.989,15.262 90.094,14.176 90.304,13.502 C90.513,12.828 90.865,12.491 91.359,12.491 C91.838,12.491 92.198,12.768 92.438,13.322 C92.677,13.876 92.797,14.490 92.797,15.164 C93.665,15.224 94.339,15.254 94.818,15.254 C95.582,15.254 96.237,15.194 96.784,15.074 C97.330,14.955 97.843,14.741 98.322,14.434 C98.801,14.127 99.165,13.667 99.412,13.053 C99.659,12.439 99.782,11.668 99.782,10.739 C99.782,9.077 99.397,7.834 98.625,7.011 C97.854,6.187 96.862,5.775 95.649,5.775 C94.616,5.775 93.587,6.049 92.561,6.595 C91.535,7.142 90.636,7.947 89.862,9.010 C89.089,10.073 88.607,11.264 88.417,12.581 C88.417,12.327 88.424,11.836 88.439,11.110 C88.454,10.384 88.462,9.751 88.462,9.212 C88.401,8.044 88.064,7.209 87.449,6.708 C86.835,6.206 85.913,5.955 84.685,5.955 C83.444,5.955 82.270,6.262 81.162,6.876 C81.342,8.389 81.432,10.522 81.432,13.277 L81.432,13.277 Z" class="cls-4"/>
  <path d="M100.801,11.885 C101.589,11.631 102.582,11.480 103.780,11.436 C103.780,11.796 103.773,12.343 103.758,13.078 C103.743,13.814 103.735,14.369 103.735,14.744 C103.735,16.824 103.780,19.189 103.870,21.838 C103.961,24.248 104.650,26.104 105.938,27.406 C107.225,28.708 108.802,29.359 110.670,29.359 C112.276,29.359 113.644,28.878 114.775,27.916 C115.905,26.954 116.471,25.860 116.471,24.637 C116.471,23.920 116.246,23.233 115.797,22.575 C115.183,22.890 114.674,23.048 114.270,23.048 C114.015,23.048 113.787,22.984 113.584,22.857 C113.382,22.729 113.210,22.531 113.068,22.260 C112.925,21.990 112.806,21.712 112.708,21.428 C112.611,21.143 112.532,20.760 112.473,20.280 C112.413,19.799 112.364,19.379 112.327,19.019 C112.289,18.659 112.263,18.183 112.248,17.590 C112.233,16.998 112.226,16.521 112.226,16.161 C112.226,15.981 112.226,15.768 112.226,15.520 C112.226,15.272 112.226,14.983 112.226,14.653 C112.226,14.008 112.233,13.551 112.248,13.281 L112.248,11.705 C114.614,11.705 115.797,10.739 115.797,8.808 C115.797,7.729 115.433,6.898 114.706,6.314 C114.191,6.524 113.296,6.651 112.023,6.696 C111.950,5.064 111.823,3.694 111.642,2.586 C111.566,2.287 111.174,1.998 110.467,1.721 C109.759,1.444 108.946,1.306 108.027,1.306 C106.491,1.306 105.105,1.718 103.870,2.541 L103.780,6.449 L102.939,6.449 C102.135,6.449 101.468,6.752 100.938,7.359 C100.407,7.965 100.142,8.710 100.142,9.594 C100.142,10.358 100.361,11.122 100.801,11.885 L100.801,11.885 Z" class="cls-5"/>
  <path d="M118.447,36.951 C118.821,37.625 119.308,38.183 119.907,38.625 C120.506,39.066 121.187,39.444 121.951,39.759 C122.715,40.073 123.467,40.298 124.208,40.433 C124.950,40.567 125.665,40.635 126.354,40.635 C128.001,40.635 129.561,40.249 131.032,39.478 C132.503,38.707 133.761,37.483 134.806,35.806 C135.934,36.195 137.022,36.884 138.070,37.872 C138.764,36.764 139.111,35.768 139.111,34.885 C139.111,34.510 139.043,34.158 138.906,33.829 C138.770,33.500 138.559,33.192 138.273,32.908 C137.986,32.624 137.746,32.410 137.551,32.268 C137.356,32.126 137.076,31.927 136.712,31.673 C137.331,29.801 137.744,28.150 137.949,26.720 C138.155,25.290 138.258,23.640 138.258,21.768 L138.213,13.457 C138.213,13.218 138.216,12.873 138.224,12.424 C138.231,11.975 138.235,11.626 138.235,11.379 C138.235,11.132 138.228,10.807 138.212,10.402 C138.197,9.998 138.165,9.680 138.117,9.448 C138.070,9.216 137.998,8.939 137.903,8.617 C137.808,8.295 137.689,8.040 137.546,7.853 C137.403,7.666 137.220,7.464 136.998,7.247 C136.775,7.030 136.521,6.865 136.236,6.752 C135.950,6.640 135.608,6.547 135.211,6.472 C134.814,6.397 134.369,6.359 133.877,6.359 C133.385,6.359 132.965,6.397 132.617,6.472 C132.268,6.547 131.965,6.640 131.708,6.752 C131.450,6.865 131.224,7.037 131.029,7.269 C130.834,7.501 130.670,7.711 130.538,7.898 C130.406,8.085 130.298,8.358 130.214,8.718 C130.130,9.077 130.064,9.377 130.016,9.616 C129.967,9.856 129.932,10.215 129.911,10.694 C129.890,11.174 129.880,11.548 129.880,11.817 C129.880,12.087 129.880,12.499 129.880,13.053 C129.880,13.248 129.880,13.397 129.880,13.502 L129.947,20.712 C129.827,21.506 129.603,22.127 129.273,22.576 C128.929,23.011 128.562,23.228 128.173,23.228 C128.008,23.228 127.843,23.190 127.679,23.115 C127.125,22.876 126.803,22.382 126.713,21.633 C126.653,21.019 126.623,17.590 126.623,11.346 C126.533,10.163 126.316,9.178 125.972,8.392 C125.627,7.606 125.219,7.048 124.748,6.719 C124.276,6.390 123.740,6.180 123.142,6.090 C122.872,6.045 122.610,6.022 122.355,6.022 C122.041,6.022 121.734,6.060 121.435,6.135 C120.896,6.240 120.364,6.397 119.840,6.606 C119.316,6.816 118.915,7.000 118.638,7.157 C118.361,7.314 118.155,7.438 118.021,7.527 C118.065,7.662 118.099,7.793 118.122,7.920 C118.144,8.048 118.163,8.198 118.178,8.370 C118.192,8.542 118.208,8.684 118.223,8.796 C118.237,8.909 118.245,9.088 118.245,9.335 C118.245,9.583 118.245,9.773 118.245,9.908 C118.245,10.043 118.245,10.290 118.245,10.649 C118.245,11.009 118.245,11.286 118.245,11.480 L118.245,19.477 C118.245,21.214 118.477,22.748 118.941,24.081 C119.405,25.414 120.004,26.451 120.738,27.192 C121.472,27.933 122.311,28.454 123.254,28.753 C123.808,28.933 124.362,29.022 124.916,29.022 C125.250,29.022 125.592,28.985 125.940,28.910 C126.790,28.701 127.609,28.255 128.397,27.574 C129.184,26.893 129.836,26.005 130.352,24.912 C130.330,25.586 130.213,26.447 129.999,27.495 C129.784,28.543 129.565,29.247 129.341,29.606 C128.367,29.502 127.461,29.449 126.623,29.449 C125.500,29.449 124.456,29.531 123.490,29.696 C122.524,29.861 121.603,30.134 120.727,30.516 C119.851,30.898 119.158,31.448 118.649,32.167 C118.140,32.886 117.886,33.747 117.886,34.750 C117.886,35.544 118.073,36.277 118.447,36.951 ZM124.074,34.458 C124.336,34.233 124.684,34.065 125.118,33.953 C125.552,33.840 125.964,33.754 126.354,33.694 C126.743,33.634 127.151,33.586 127.578,33.548 C128.004,33.511 128.255,33.484 128.330,33.470 C128.285,33.664 128.075,33.986 127.701,34.436 C127.327,34.885 126.862,35.319 126.309,35.738 C125.754,36.157 125.260,36.367 124.826,36.367 C124.542,36.367 124.279,36.270 124.040,36.075 C123.800,35.880 123.681,35.611 123.681,35.267 C123.681,34.952 123.812,34.683 124.074,34.458 Z" class="cls-6"/>
  <path d="M111.514,48.112 C111.364,48.208 111.187,48.256 110.983,48.256 C110.791,48.256 110.620,48.208 110.470,48.112 C110.320,48.017 110.245,47.885 110.245,47.717 L110.245,43.085 C110.245,42.546 110.041,42.061 109.633,41.630 C109.225,41.200 108.745,40.984 108.193,40.984 C107.677,40.984 107.221,41.179 106.825,41.567 C106.429,41.957 106.231,42.462 106.231,43.085 L106.231,47.717 C106.231,47.849 106.153,47.972 105.997,48.085 C105.841,48.199 105.667,48.256 105.475,48.256 C105.271,48.256 105.097,48.202 104.953,48.094 C104.809,47.986 104.737,47.860 104.737,47.716 L104.737,40.246 C104.737,40.090 104.806,39.964 104.944,39.868 C105.082,39.772 105.259,39.724 105.475,39.724 C105.655,39.724 105.814,39.776 105.952,39.879 C106.090,39.983 106.159,40.108 106.159,40.253 L106.159,41.002 C106.351,40.613 106.660,40.285 107.086,40.017 C107.512,39.750 108.007,39.616 108.571,39.616 C109.423,39.616 110.164,39.955 110.794,40.633 C111.424,41.311 111.739,42.124 111.739,43.072 L111.739,47.716 C111.739,47.884 111.664,48.016 111.514,48.112 ZM102.568,44.212 C102.394,44.303 102.232,44.361 102.082,44.386 C101.932,44.410 101.731,44.422 101.479,44.422 L97.537,44.422 L97.537,44.962 C97.537,45.622 97.774,46.150 98.248,46.546 C98.722,46.942 99.337,47.140 100.093,47.140 C100.489,47.140 100.834,47.080 101.128,46.960 C101.422,46.840 101.659,46.723 101.839,46.609 C102.019,46.495 102.163,46.438 102.271,46.438 C102.439,46.438 102.583,46.513 102.703,46.663 C102.823,46.813 102.883,46.966 102.883,47.122 C102.883,47.398 102.610,47.680 102.064,47.968 C101.518,48.256 100.843,48.400 100.039,48.400 C98.863,48.400 97.903,48.079 97.159,47.437 C96.415,46.795 96.043,45.952 96.043,44.908 L96.043,43.018 C96.043,42.094 96.394,41.296 97.096,40.624 C97.798,39.952 98.641,39.616 99.625,39.616 C100.561,39.616 101.371,39.929 102.055,40.556 C102.739,41.182 103.081,41.967 103.081,42.910 C103.081,43.262 103.039,43.544 102.955,43.757 C102.871,43.970 102.742,44.121 102.568,44.212 ZM101.065,41.398 C100.669,40.990 100.183,40.786 99.607,40.786 C99.043,40.786 98.557,40.975 98.149,41.353 C97.741,41.731 97.537,42.196 97.537,42.748 L97.537,43.396 L100.867,43.396 C101.179,43.396 101.389,43.357 101.497,43.279 C101.605,43.201 101.659,43.048 101.659,42.820 C101.659,42.280 101.461,41.806 101.065,41.398 ZM94.657,40.894 L92.389,40.894 L92.389,45.497 C92.389,46.008 92.500,46.368 92.722,46.576 C92.944,46.784 93.331,46.888 93.883,46.888 L94.441,46.888 C94.645,46.888 94.804,46.954 94.918,47.085 C95.032,47.216 95.089,47.375 95.089,47.563 C95.089,47.750 95.029,47.912 94.909,48.050 C94.789,48.187 94.633,48.256 94.441,48.256 L93.883,48.256 C91.891,48.256 90.895,47.350 90.895,45.538 L90.895,36.268 C90.895,36.124 90.973,36.001 91.129,35.899 C91.285,35.797 91.453,35.746 91.633,35.746 C91.825,35.746 91.999,35.797 92.155,35.899 C92.311,36.001 92.389,36.124 92.389,36.268 L92.389,39.724 L94.657,39.724 C94.789,39.724 94.897,39.784 94.981,39.904 C95.065,40.024 95.107,40.162 95.107,40.318 C95.107,40.474 95.065,40.609 94.981,40.723 C94.897,40.837 94.789,40.894 94.657,40.894 ZM89.131,40.984 L88.519,40.984 C87.907,40.984 87.373,41.229 86.917,41.720 C86.461,42.211 86.233,42.845 86.233,43.623 L86.233,47.717 C86.233,47.849 86.158,47.972 86.008,48.085 C85.858,48.199 85.681,48.256 85.477,48.256 C85.273,48.256 85.099,48.202 84.955,48.094 C84.811,47.986 84.739,47.860 84.739,47.716 L84.739,40.246 C84.739,40.090 84.808,39.964 84.946,39.868 C85.084,39.772 85.261,39.724 85.477,39.724 C85.669,39.724 85.831,39.773 85.963,39.870 C86.095,39.967 86.161,40.095 86.161,40.253 L86.161,41.110 C86.377,40.697 86.695,40.345 87.115,40.053 C87.535,39.762 88.003,39.616 88.519,39.616 L89.131,39.616 C89.287,39.616 89.422,39.686 89.536,39.826 C89.650,39.966 89.707,40.127 89.707,40.309 C89.707,40.491 89.650,40.649 89.536,40.783 C89.422,40.917 89.287,40.984 89.131,40.984 ZM81.949,48.256 C81.757,48.256 81.595,48.206 81.463,48.107 C81.331,48.008 81.265,47.882 81.265,47.730 L81.265,47.029 C80.449,47.943 79.543,48.400 78.547,48.400 C77.827,48.400 77.242,48.198 76.792,47.793 C76.342,47.389 76.117,46.800 76.117,46.026 C76.117,45.083 76.477,44.426 77.197,44.057 C77.917,43.688 78.961,43.504 80.329,43.504 L81.193,43.504 L81.193,43.123 C81.193,42.519 81.028,41.994 80.698,41.547 C80.368,41.099 79.873,40.876 79.213,40.876 C78.709,40.876 78.265,40.966 77.881,41.146 C77.497,41.326 77.287,41.416 77.251,41.416 C77.083,41.416 76.948,41.335 76.846,41.173 C76.744,41.011 76.693,40.840 76.693,40.660 C76.693,40.384 76.966,40.141 77.512,39.931 C78.058,39.721 78.637,39.616 79.249,39.616 C80.425,39.616 81.292,39.949 81.850,40.615 C82.408,41.281 82.687,42.112 82.687,43.108 L82.687,47.716 C82.687,47.872 82.618,48.001 82.480,48.103 C82.342,48.205 82.165,48.256 81.949,48.256 ZM81.193,44.422 L80.563,44.422 C80.215,44.422 79.915,44.431 79.663,44.449 C79.411,44.467 79.150,44.504 78.880,44.559 C78.610,44.613 78.388,44.692 78.214,44.796 C78.040,44.899 77.899,45.039 77.791,45.215 C77.683,45.391 77.629,45.607 77.629,45.862 C77.629,46.312 77.755,46.652 78.007,46.883 C78.259,47.115 78.595,47.230 79.015,47.230 C79.519,47.230 80.008,47.026 80.482,46.619 C80.956,46.212 81.193,45.796 81.193,45.370 L81.193,44.422 ZM74.101,40.876 C74.473,41.320 74.659,41.890 74.659,42.586 L74.659,43.180 C74.659,44.044 74.353,44.758 73.741,45.322 C73.129,45.886 72.349,46.168 71.401,46.168 C70.909,46.168 70.465,46.078 70.069,45.898 C69.769,46.075 69.619,46.274 69.619,46.498 C69.619,46.721 69.758,46.894 70.035,47.018 C70.312,47.141 70.653,47.229 71.058,47.280 C71.464,47.332 71.908,47.389 72.390,47.450 C72.873,47.511 73.318,47.609 73.725,47.744 C74.133,47.878 74.474,48.117 74.750,48.459 C75.025,48.802 75.163,49.236 75.163,49.762 C75.163,50.610 74.824,51.258 74.146,51.706 C73.468,52.154 72.589,52.378 71.509,52.378 C70.429,52.378 69.538,52.160 68.836,51.725 C68.134,51.289 67.783,50.701 67.783,49.961 C67.783,49.082 68.269,48.426 69.241,47.992 C68.653,47.764 68.359,47.360 68.359,46.782 C68.359,46.229 68.647,45.785 69.223,45.448 C68.539,44.896 68.197,44.140 68.197,43.180 L68.197,42.586 C68.197,41.710 68.491,40.996 69.079,40.444 C69.667,39.892 70.441,39.616 71.401,39.616 C72.217,39.616 72.919,39.839 73.507,40.284 C73.867,39.527 74.275,39.148 74.731,39.148 C74.923,39.148 75.079,39.205 75.199,39.319 C75.319,39.433 75.379,39.562 75.379,39.706 C75.379,39.863 75.277,39.983 75.073,40.066 C74.665,40.185 74.341,40.455 74.101,40.876 ZM69.205,49.795 C69.205,50.265 69.412,50.643 69.826,50.926 C70.240,51.210 70.795,51.352 71.491,51.352 C72.163,51.352 72.700,51.210 73.102,50.926 C73.504,50.641 73.705,50.263 73.705,49.791 C73.705,49.597 73.672,49.428 73.606,49.283 C73.540,49.138 73.435,49.017 73.291,48.920 C73.147,48.823 73.004,48.741 72.860,48.675 C72.716,48.608 72.528,48.560 72.296,48.529 C72.064,48.498 71.876,48.474 71.734,48.455 C71.591,48.436 71.394,48.411 71.145,48.378 C70.895,48.345 70.722,48.322 70.627,48.310 C69.679,48.624 69.205,49.118 69.205,49.795 ZM73.201,42.586 C73.201,42.034 73.039,41.572 72.715,41.200 C72.391,40.828 71.959,40.642 71.419,40.642 C70.867,40.642 70.435,40.825 70.123,41.191 C69.811,41.557 69.655,42.022 69.655,42.586 L69.655,43.162 C69.655,43.738 69.814,44.212 70.132,44.584 C70.450,44.956 70.885,45.142 71.437,45.142 C71.965,45.142 72.391,44.959 72.715,44.593 C73.039,44.227 73.201,43.756 73.201,43.180 L73.201,42.586 ZM66.793,40.984 L66.181,40.984 C65.569,40.984 65.035,41.229 64.579,41.720 C64.123,42.211 63.895,42.845 63.895,43.623 L63.895,47.717 C63.895,47.849 63.820,47.972 63.670,48.085 C63.520,48.199 63.343,48.256 63.139,48.256 C62.935,48.256 62.761,48.202 62.617,48.094 C62.473,47.986 62.401,47.860 62.401,47.716 L62.401,40.246 C62.401,40.090 62.470,39.964 62.608,39.868 C62.746,39.772 62.923,39.724 63.139,39.724 C63.331,39.724 63.493,39.773 63.625,39.870 C63.757,39.967 63.823,40.095 63.823,40.253 L63.823,41.110 C64.039,40.697 64.357,40.345 64.777,40.053 C65.197,39.762 65.665,39.616 66.181,39.616 L66.793,39.616 C66.949,39.616 67.084,39.686 67.198,39.826 C67.312,39.966 67.369,40.127 67.369,40.309 C67.369,40.491 67.312,40.649 67.198,40.783 C67.084,40.917 66.949,40.984 66.793,40.984 ZM60.232,44.212 C60.058,44.303 59.896,44.361 59.746,44.386 C59.596,44.410 59.395,44.422 59.143,44.422 L55.201,44.422 L55.201,44.962 C55.201,45.622 55.438,46.150 55.912,46.546 C56.386,46.942 57.001,47.140 57.757,47.140 C58.153,47.140 58.498,47.080 58.792,46.960 C59.086,46.840 59.323,46.723 59.503,46.609 C59.683,46.495 59.827,46.438 59.935,46.438 C60.103,46.438 60.247,46.513 60.367,46.663 C60.487,46.813 60.547,46.966 60.547,47.122 C60.547,47.398 60.274,47.680 59.728,47.968 C59.182,48.256 58.507,48.400 57.703,48.400 C56.527,48.400 55.567,48.079 54.823,47.437 C54.079,46.795 53.707,45.952 53.707,44.908 L53.707,43.018 C53.707,42.094 54.058,41.296 54.760,40.624 C55.462,39.952 56.305,39.616 57.289,39.616 C58.225,39.616 59.035,39.929 59.719,40.556 C60.403,41.182 60.745,41.967 60.745,42.910 C60.745,43.262 60.703,43.544 60.619,43.757 C60.535,43.970 60.406,44.121 60.232,44.212 ZM58.729,41.398 C58.333,40.990 57.847,40.786 57.271,40.786 C56.707,40.786 56.221,40.975 55.813,41.353 C55.405,41.731 55.201,42.196 55.201,42.748 L55.201,43.396 L58.531,43.396 C58.843,43.396 59.053,43.357 59.161,43.279 C59.269,43.201 59.323,43.048 59.323,42.820 C59.323,42.280 59.125,41.806 58.729,41.398 ZM51.152,48.256 C50.972,48.256 50.812,48.201 50.675,48.092 C50.536,47.982 50.468,47.855 50.468,47.708 L50.468,46.978 C50.263,47.367 49.933,47.701 49.478,47.981 C49.021,48.260 48.524,48.400 47.984,48.400 C47.143,48.400 46.405,48.046 45.770,47.338 C45.133,46.630 44.816,45.820 44.816,44.908 L44.816,43.072 C44.816,42.124 45.133,41.311 45.770,40.633 C46.405,39.955 47.161,39.616 48.038,39.616 C48.578,39.616 49.051,39.750 49.460,40.017 C49.867,40.285 50.180,40.613 50.396,41.002 L50.396,35.116 C50.396,34.960 50.468,34.834 50.612,34.738 C50.756,34.642 50.936,34.594 51.152,34.594 C51.368,34.594 51.544,34.642 51.683,34.738 C51.820,34.834 51.890,34.960 51.890,35.115 L51.890,47.717 C51.890,47.861 51.818,47.986 51.674,48.094 C51.530,48.202 51.355,48.256 51.152,48.256 ZM50.396,43.078 C50.396,42.457 50.191,41.953 49.784,41.566 C49.375,41.178 48.902,40.984 48.362,40.984 C47.809,40.984 47.329,41.199 46.922,41.628 C46.513,42.058 46.310,42.541 46.310,43.078 L46.310,44.903 C46.310,45.452 46.513,45.943 46.922,46.379 C47.329,46.814 47.804,47.032 48.344,47.032 C48.871,47.032 49.345,46.832 49.766,46.433 C50.185,46.033 50.396,45.684 50.396,45.386 L50.396,43.078 ZM42.332,48.256 C42.140,48.256 41.969,48.208 41.819,48.112 C41.669,48.017 41.594,47.885 41.594,47.717 L41.594,43.085 C41.594,42.546 41.390,42.061 40.982,41.630 C40.574,41.200 40.094,40.984 39.542,40.984 C39.026,40.984 38.570,41.179 38.174,41.567 C37.778,41.957 37.580,42.462 37.580,43.085 L37.580,47.717 C37.580,47.849 37.502,47.972 37.346,48.085 C37.190,48.199 37.016,48.256 36.824,48.256 C36.620,48.256 36.446,48.202 36.302,48.094 C36.158,47.986 36.086,47.860 36.086,47.716 L36.086,40.246 C36.086,40.090 36.155,39.964 36.293,39.868 C36.431,39.772 36.608,39.724 36.824,39.724 C37.004,39.724 37.163,39.776 37.301,39.879 C37.439,39.983 37.508,40.108 37.508,40.253 L37.508,41.002 C37.700,40.613 38.009,40.285 38.435,40.017 C38.861,39.750 39.356,39.616 39.920,39.616 C40.772,39.616 41.513,39.955 42.143,40.633 C42.773,41.311 43.088,42.124 43.088,43.072 L43.088,47.716 C43.088,47.884 43.013,48.016 42.863,48.112 C42.713,48.208 42.536,48.256 42.332,48.256 ZM33.206,37.384 C32.954,37.384 32.735,37.297 32.549,37.123 C32.363,36.949 32.270,36.748 32.270,36.520 C32.270,36.292 32.360,36.094 32.540,35.926 C32.720,35.758 32.942,35.674 33.206,35.674 C33.458,35.674 33.674,35.758 33.854,35.926 C34.034,36.094 34.124,36.292 34.124,36.520 C34.124,36.748 34.034,36.949 33.854,37.123 C33.674,37.297 33.458,37.384 33.206,37.384 ZM30.344,48.328 C30.176,48.328 30.038,48.250 29.930,48.094 L27.068,43.900 L25.574,45.232 L25.574,47.716 C25.574,47.848 25.499,47.971 25.349,48.085 C25.199,48.199 25.022,48.256 24.818,48.256 C24.614,48.256 24.440,48.202 24.296,48.094 C24.152,47.986 24.080,47.860 24.080,47.716 L24.080,35.098 C24.080,34.942 24.149,34.816 24.287,34.720 C24.425,34.624 24.602,34.576 24.818,34.576 C25.034,34.576 25.214,34.624 25.358,34.720 C25.502,34.816 25.574,34.942 25.574,35.098 L25.574,43.522 L29.678,39.814 C29.786,39.730 29.894,39.688 30.002,39.688 C30.182,39.688 30.353,39.760 30.515,39.904 C30.677,40.048 30.758,40.210 30.758,40.390 C30.758,40.534 30.704,40.654 30.596,40.750 L28.094,42.964 L31.082,47.302 C31.142,47.398 31.172,47.488 31.172,47.572 C31.172,47.752 31.082,47.923 30.902,48.085 C30.722,48.247 30.536,48.328 30.344,48.328 ZM33.206,39.724 C33.422,39.724 33.602,39.772 33.746,39.868 C33.890,39.964 33.962,40.090 33.962,40.246 L33.962,47.716 C33.962,47.848 33.887,47.971 33.737,48.085 C33.587,48.199 33.410,48.256 33.206,48.256 C33.002,48.256 32.828,48.202 32.684,48.094 C32.540,47.986 32.468,47.860 32.468,47.716 L32.468,40.246 C32.468,40.090 32.540,39.964 32.684,39.868 C32.828,39.772 33.002,39.724 33.206,39.724 Z" class="cls-7"/>
  <path d="M134.000,10.000 C132.895,10.000 132.000,9.328 132.000,8.500 C132.000,7.672 132.895,7.000 134.000,7.000 C135.105,7.000 136.000,7.672 136.000,8.500 C136.000,9.328 135.105,10.000 134.000,10.000 ZM131.363,30.962 C129.432,30.482 127.685,30.870 128.027,29.520 C128.060,29.390 129.914,28.747 131.885,29.082 C133.773,29.713 135.034,31.135 135.014,31.268 C134.779,32.834 133.291,31.447 131.363,30.962 ZM122.000,10.000 C120.895,10.000 120.000,9.328 120.000,8.500 C120.000,7.672 120.895,7.000 122.000,7.000 C123.105,7.000 124.000,7.672 124.000,8.500 C124.000,9.328 123.105,10.000 122.000,10.000 ZM107.500,4.000 C106.119,4.000 105.000,3.552 105.000,3.000 C105.000,2.448 106.119,2.000 107.500,2.000 C108.881,2.000 110.000,2.448 110.000,3.000 C110.000,3.552 108.881,4.000 107.500,4.000 ZM94.500,10.000 C93.119,10.000 92.000,9.328 92.000,8.500 C92.000,7.672 93.119,7.000 94.500,7.000 C95.881,7.000 97.000,7.672 97.000,8.500 C97.000,9.328 95.881,10.000 94.500,10.000 ZM84.000,10.000 C82.895,10.000 82.000,9.328 82.000,8.500 C82.000,7.672 82.895,7.000 84.000,7.000 C85.105,7.000 86.000,7.672 86.000,8.500 C86.000,9.328 85.105,10.000 84.000,10.000 ZM75.000,10.000 C73.895,10.000 73.000,9.328 73.000,8.500 C73.000,7.672 73.895,7.000 75.000,7.000 C76.105,7.000 77.000,7.672 77.000,8.500 C77.000,9.328 76.105,10.000 75.000,10.000 ZM65.500,10.000 C64.119,10.000 63.000,9.328 63.000,8.500 C63.000,7.672 64.119,7.000 65.500,7.000 C66.881,7.000 68.000,7.672 68.000,8.500 C68.000,9.328 66.881,10.000 65.500,10.000 ZM48.500,10.000 C47.119,10.000 46.000,9.328 46.000,8.500 C46.000,7.672 47.119,7.000 48.500,7.000 C49.881,7.000 51.000,7.672 51.000,8.500 C51.000,9.328 49.881,10.000 48.500,10.000 ZM37.000,10.000 C35.895,10.000 35.000,9.328 35.000,8.500 C35.000,7.672 35.895,7.000 37.000,7.000 C38.105,7.000 39.000,7.672 39.000,8.500 C39.000,9.328 38.105,10.000 37.000,10.000 ZM28.000,10.000 C26.895,10.000 26.000,9.328 26.000,8.500 C26.000,7.672 26.895,7.000 28.000,7.000 C29.105,7.000 30.000,7.672 30.000,8.500 C30.000,9.328 29.105,10.000 28.000,10.000 ZM11.000,2.000 C9.343,2.000 8.000,1.552 8.000,1.000 C8.000,0.448 9.343,0.000 11.000,0.000 C12.657,0.000 14.000,0.448 14.000,1.000 C14.000,1.552 12.657,2.000 11.000,2.000 ZM3.500,19.000 C2.672,19.000 2.000,18.776 2.000,18.500 C2.000,18.224 2.672,18.000 3.500,18.000 C4.328,18.000 5.000,18.224 5.000,18.500 C5.000,18.776 4.328,19.000 3.500,19.000 Z" class="cls-8"/>
</svg>
